<?xml version="1.0" encoding="UTF-8"?>
<svg width="128px" height="128px" viewBox="0 0 128 128" version="1.1" xmlns="http://www.w3.org/2000/svg" xmlns:xlink="http://www.w3.org/1999/xlink">
    <!-- Generator: Sketch 52.5 (67469) - http://www.bohemiancoding.com/sketch -->
    <title>Group</title>
    <desc>Created with Sketch.</desc>
    <g id="Page-1" stroke="none" stroke-width="1" fill="none" fill-rule="evenodd">
        <g id="zenumllogo" transform="translate(-32.000000, -80.000000)">
            <g id="Group" transform="translate(32.000000, 80.000000)">
                <path d="M8,0 L120,0 C124.418278,-8.11624501e-16 128,3.581722 128,8 L128,120 C128,124.418278 124.418278,128 120,128 L8,128 C3.581722,128 5.41083001e-16,124.418278 0,120 L0,8 C-5.41083001e-16,3.581722 3.581722,8.11624501e-16 8,0 Z" id="Rectangle" fill="#2B78FF"></path>
                <path d="M30,108 L16,108 L16,20 L30,20 L30,8 L42,8 L42,20 L56,20 L56,108 L42,108 L42,120 L30,120 L30,108 Z" id="Combined-Shape" fill="#FFFFFF"></path>
                <path d="M86,100 L72,100 L72,32 L86,32 L86,8 L98,8 L98,32 L112,32 L112,100 L98,100 L98,120 L86,120 L86,100 Z" id="Combined-Shape" fill="#FFFFFF"></path>
            </g>
        </g>
    </g>
</svg>