<?xml version="1.0" encoding="UTF-8" standalone="no"?>
<!DOCTYPE svg PUBLIC "-//W3C//DTD SVG 1.1//EN" "http://www.w3.org/Graphics/SVG/1.1/DTD/svg11.dtd">
<svg version="1.1" xmlns="http://www.w3.org/2000/svg" xmlns:xlink="http://www.w3.org/1999/xlink" preserveAspectRatio="xMidYMid meet" viewBox="0 0 40 40" width="40" height="40"><defs><path d="M37.5 0C38.88 0 40 1.12 40 2.5C40 6 40 34 40 37.5C40 38.88 38.88 40 37.5 40C34 40 6 40 2.5 40C1.12 40 0 38.88 0 37.5C0 34 0 6 0 2.5C0 1.12 1.12 0 2.5 0C9.5 0 34 0 37.5 0Z" id="b11FlyO7Jb"></path><path d="M5 33.75L5 6.25L9.38 6.25L9.38 2.5L13.13 2.5L13.13 6.25L17.5 6.25L17.5 33.75L13.13 33.75L13.13 37.5L9.38 37.5L9.38 33.75L5 33.75Z" id="lcY8nAus1"></path><path d="M22.5 31.25L22.5 10L26.88 10L26.88 2.5L30.63 2.5L30.63 10L35 10L35 31.25L30.63 31.25L30.63 37.5L26.88 37.5L26.88 31.25L22.5 31.25Z" id="aAmAYfNxz"></path></defs><g><g><g><use xlink:href="#b11FlyO7Jb" opacity="1" fill="#2b78ff" fill-opacity="1"></use><g><use xlink:href="#b11FlyO7Jb" opacity="1" fill-opacity="0" stroke="#000000" stroke-width="1" stroke-opacity="0"></use></g></g><g><use xlink:href="#lcY8nAus1" opacity="1" fill="#ffffff" fill-opacity="1"></use><g><use xlink:href="#lcY8nAus1" opacity="1" fill-opacity="0" stroke="#000000" stroke-width="1" stroke-opacity="0"></use></g></g><g><use xlink:href="#aAmAYfNxz" opacity="1" fill="#ffffff" fill-opacity="1"></use><g><use xlink:href="#aAmAYfNxz" opacity="1" fill-opacity="0" stroke="#000000" stroke-width="1" stroke-opacity="0"></use></g></g></g></g></svg>